<?xml version="1.0" encoding="UTF-8"?>
<svg width="50px" height="50px" enable-background="new 0 0 485.22 485.22" version="1.1" viewBox="0 0 485.22 485.22" xml:space="preserve" xmlns="http://www.w3.org/2000/svg">
                		<path d="m466.32 18.936c-25.214-25.225-66.102-25.234-91.327-0.02-0.16 0.16-0.318 0.32-0.476 0.481l-81.52 95.107-63.273-18.981c4.312-4.846 6.683-11.114 6.659-17.601 0.107-7.264-2.752-14.258-7.917-19.367-10.634-10.617-27.857-10.617-38.492 0l-19.264 19.264-22.09-6.627 0.57-0.57c10.556-10.659 10.556-27.832 0-38.492-10.634-10.617-27.857-10.617-38.492 0l-21.296 21.297-38.311-11.493c-20.993-6.296-43.115 5.618-49.411 26.611-4.95 16.505 1.317 34.319 15.511 44.089l174.55 120-72.29 84.338-70.813 7.602c-6.533 0.451-12.192 4.699-14.45 10.846-2.422 7.254-0.439 15.255 5.092 20.537l26.067 26.071c-6.62 14.283-0.408 31.229 13.875 37.849 7.603 3.524 16.371 3.524 23.973 0l26.042 26.042c3.802 3.879 8.985 6.096 14.417 6.167 2.089 5e-3 4.163-0.361 6.125-1.079 6.087-2.213 10.32-7.78 10.825-14.238l7.619-70.982 84.359-72.307 120 174.55c6.666 9.716 17.316 15.954 29.05 17.017 1.225 0.108 2.442 0.167 3.658 0.167 21.939-0.039 39.692-17.856 39.653-39.795-7e-3 -3.826-0.566-7.631-1.661-11.297l-11.491-38.301 21.291-21.295c10.628-10.592 10.658-27.794 0.066-38.422-5.087-5.104-11.993-7.978-19.199-7.99-7.27-0.15-14.278 2.717-19.358 7.921l-0.566 0.566-6.628-22.093 19.261-19.261c10.617-10.634 10.617-27.857 0-38.492-5.039-5.121-11.941-7.978-19.125-7.917-6.553 0.011-12.884 2.379-17.837 6.67l-18.984-63.277 95.105-81.518c0.167-0.142 0.333-0.292 0.483-0.446 25.224-25.213 25.233-66.101 0.02-91.326zm-264.28 51.686c3.968-3.955 10.388-3.957 14.358-4e-3 1.935 1.93 2.99 4.572 2.917 7.305 0.028 2.653-1.025 5.202-2.917 7.063l-5.033 5.031-22.091-6.627 12.766-12.768zm-79.275-26.426c3.968-3.958 10.391-3.958 14.358 0 1.935 1.927 2.991 4.566 2.917 7.296 0.028 2.653-1.025 5.202-2.917 7.063l-7.07 7.067-22.088-6.626 14.8-14.8zm-95.908 54.375c-10.28-7.101-12.856-21.191-5.754-31.47 5.57-8.062 15.698-11.622 25.087-8.817l83.039 24.911 0.039 0.011 151.58 45.472-77.932 90.92-176.06-121.03zm48.737 269.57l-24.246-24.249c-1.25-1.254-1.225-2.329-1.108-2.329h8e-3l53.004-5.689-27.658 32.267zm68.313 66.847c-1.002 0.081-1.978-0.344-2.6-1.133l-24.226-24.226 32.329-27.711-5.503 53.07zm282.75-86.892c1.959-1.882 4.575-2.928 7.292-2.917 2.654-0.022 5.203 1.032 7.067 2.921 3.958 3.968 3.958 10.391 0 14.358l-14.794 14.796-6.628-22.092 7.063-7.066zm-26.425-79.274c1.892-1.903 4.475-2.956 7.158-2.917h0.142c2.655-0.046 5.21 1.01 7.058 2.917 3.958 3.968 3.958 10.391 0 14.358l-12.764 12.764-6.627-22.088 5.033-5.034zm1.782 87.151l2e-3 6e-3 24.916 83.047c3.594 11.962-3.19 24.571-15.152 28.165-9.406 2.826-19.561-0.743-25.132-8.832l-121.03-176.05 90.917-77.929 45.48 151.59zm52.443-258l-299.37 256.6c-0.241 0.184-0.471 0.382-0.69 0.591l-55.455 47.532c-4.883 4.186-12.235 3.622-16.421-1.261-3.738-4.36-3.74-10.794-4e-3 -15.155l47.674-55.625c0.127-0.146 0.253-0.278 0.369-0.431l256.46-299.24c18.56-18.56 48.651-18.56 67.211-1e-3 18.474 18.473 18.573 48.393 0.223 66.989z"/>
                </svg>
