<?xml version="1.0" encoding="UTF-8"?>
<svg width="50px" height="50px" enable-background="new 0 0 297 297" version="1.1" viewBox="0 0 297 297" xml:space="preserve" xmlns="http://www.w3.org/2000/svg">
                <path d="m296.03 108.22c0-37.967-30.877-68.855-68.83-68.855-1.649 0-3.314 0.062-4.987 0.187-16.332-24.555-44.001-39.552-73.716-39.552-29.714 0-57.383 15-73.715 39.552-1.673-0.125-3.338-0.187-4.987-0.187-37.954 0-68.831 30.888-68.831 68.855 0 34.637 25.704 63.368 59.031 68.142v95.157c0 14.051 11.43 25.481 25.48 25.481h126.04c14.051 0 25.48-11.431 25.48-25.481v-95.157c33.328-4.774 59.031-33.506 59.031-68.142zm-84.511 169.18h-126.04c-3.186 0-5.88-2.693-5.88-5.881v-95.147c9.602-1.36 18.718-4.722 26.941-9.95 12.613 6.822 26.958 10.651 41.96 10.651s29.346-3.829 41.959-10.65c8.225 5.227 17.342 8.589 26.943 9.949v95.147c0 3.188-2.693 5.881-5.88 5.881zm15.681-119.93c-6.597 0-12.974-1.289-18.9-3.766 11.927-10.934 20.943-25.146 25.47-41.479 1.445-5.216-1.611-10.617-6.827-12.063-5.217-1.445-10.616 1.612-12.063 6.827-8.236 29.723-35.534 50.481-66.383 50.481s-58.146-20.758-66.383-50.481c-1.445-5.216-6.843-8.272-12.063-6.827-5.216 1.445-8.272 6.847-6.827 12.063 4.526 16.333 13.543 30.546 25.47 41.479-5.926 2.477-12.303 3.766-18.899 3.766-27.146 0-49.23-22.094-49.23-49.251 0-27.158 22.085-49.254 49.23-49.254 2.744 0 5.569 0.246 8.397 0.73 4.082 0.696 8.17-1.247 10.2-4.861 12.205-21.733 35.236-35.234 60.104-35.234s47.899 13.502 60.106 35.235c2.029 3.614 6.115 5.557 10.2 4.86 2.828-0.484 5.653-0.73 8.396-0.73 27.145 0 49.229 22.096 49.229 49.254 3e-3 27.157-22.082 49.251-49.227 49.251z"/>
                </svg>
