<?xml version="1.0" encoding="UTF-8"?>
<svg width="55px" height="55px" enable-background="new 0 0 512.001 512.001" stroke="black" stroke-width="10px" version="1.1" viewBox="0 0 512.001 512.001" xml:space="preserve" xmlns="http://www.w3.org/2000/svg">
                		<path d="m504.43 219.1h-35.864v-37.747c0-11.405-9.278-20.684-20.684-20.684h-24.31c-1.924 0-3.781 0.284-5.549 0.778v-7.614c0-11.405-9.278-20.684-20.684-20.684h-40.158c-11.405 0-20.684 9.278-20.684 20.684v65.267h-161v-65.267c0-11.405-9.278-20.684-20.684-20.684h-40.158c-11.405 0-20.684 9.278-20.684 20.684v7.614c-1.769-0.494-3.625-0.778-5.549-0.778h-24.308c-11.405 0-20.684 9.278-20.684 20.684v37.747h-35.865c-4.18 0-7.567 3.388-7.567 7.567v58.663c0 4.179 3.387 7.567 7.567 7.567h35.865v37.747c0 11.405 9.278 20.684 20.684 20.684h24.309c1.924 0 3.781-0.285 5.549-0.778v7.614c0 11.405 9.278 20.684 20.684 20.684h40.158c11.405 0 20.684-9.279 20.684-20.684v-65.267h161v65.267c0 11.405 9.279 20.684 20.684 20.684h40.158c11.405 0 20.684-9.278 20.684-20.684v-7.614c1.769 0.494 3.625 0.778 5.549 0.778h24.31c11.405 0 20.684-9.278 20.684-20.684v-37.747h35.864c4.18 0 7.567-3.388 7.567-7.567v-58.663c-2e-3 -4.179-3.389-7.567-7.569-7.567zm-461 58.663h-28.297v-43.529h28.297v43.529zm50.542 52.882c0 3.059-2.489 5.549-5.549 5.549h-24.309c-3.059 0-5.549-2.489-5.549-5.549v-149.29c0-3.06 2.49-5.549 5.549-5.549h24.309c3.06 0 5.549 2.489 5.549 5.549v149.29zm66.39-103.98v131.5c0 3.06-2.49 5.549-5.549 5.549h-40.158c-3.059 0-5.549-2.489-5.549-5.549v-204.33c0-3.06 2.49-5.549 5.549-5.549h40.158c3.059 0 5.549 2.489 5.549 5.549v72.835zm176.14 51.095h-161v-43.529h161v43.529zm66.392-96.412v176.81c0 3.06-2.49 5.549-5.549 5.549h-40.158c-3.059 0-5.549-2.489-5.549-5.549v-204.33c0-3.06 2.49-5.549 5.549-5.549h40.158c3.059 0 5.549 2.489 5.549 5.549v27.517zm50.543 45.316v103.98c0 3.06-2.49 5.549-5.549 5.549h-24.31c-3.059 0-5.549-2.489-5.549-5.549v-149.29c0-3.06 2.49-5.549 5.549-5.549h24.31c3.059 0 5.549 2.489 5.549 5.549v45.315zm43.43 51.096h-28.296v-43.529h28.296v43.529z"/>
                </svg>
