<?xml version="1.0" encoding="UTF-8"?>
<svg width="65px" height="65px" enable-background="new 0 0 511.999 511.999" stroke="black" stroke-width="5px" version="1.1" viewBox="0 0 511.999 511.999" xml:space="preserve" xmlns="http://www.w3.org/2000/svg">
                		<path d="m509.27 298.3l-32.658-116.62c-6.306-22.534-21.891-41.531-42.76-52.122-20.87-10.592-45.406-11.956-67.32-3.739-16.022 6.013-29.628 16.583-39.338 30.558 0 0-0.046 0.037-0.14 0.037h-141.61c-0.085 0-0.13-0.03-0.134-0.03-9.707-13.981-23.309-24.551-39.341-30.567-21.915-8.211-46.453-6.85-67.321 3.742-20.864 10.59-36.448 29.587-42.754 52.119l-32.658 116.62c-10.789 38.513 6.053 75.722 40.048 88.478 8.556 3.208 17.548 4.722 26.513 4.722 29.164-1e-3 58.001-16.026 70.304-41.855l15.67-32.794c9.656 12.936 25.042 20.962 41.742 20.962 22.775 0 42.735-14.858 49.559-36.094h18.302c6.823 21.236 26.777 36.094 49.548 36.094 16.709 0 32.102-8.035 41.756-20.98l15.708 32.8c7.92 16.626 21.687 29.581 38.764 36.476 17.078 6.896 35.982 7.134 53.232 0.668 17.246-6.47 31.332-19.08 39.663-35.506 8.329-16.422 10.184-35.233 5.222-52.97zm-24.014 43.439c-5.94 11.709-15.98 20.698-28.27 25.309-12.294 4.607-25.77 4.438-37.944-0.477-12.173-4.916-21.986-14.149-27.641-26.02l-21.904-45.739c-2.412-5.037-7.578-8.087-13.16-7.805-5.561 0.295-10.355 3.873-12.212 9.115-4.37 12.334-16.105 20.621-29.199 20.621-14.772 0-27.553-10.5-30.388-24.968-1.264-6.447-6.942-11.127-13.501-11.127h-29.617c-6.56 0-12.238 4.68-13.503 11.129-2.835 14.466-15.621 24.966-30.4 24.966-13.091 0-24.824-8.284-29.197-20.614-1.859-5.243-6.655-8.82-12.218-9.113-5.575-0.299-10.749 2.775-13.157 7.816l-21.856 45.738c-11.385 23.899-44.281 36.271-70.401 26.478-23.884-8.961-35.05-34.895-27.159-63.067l32.659-116.62c4.79-17.115 16.154-30.969 32.001-39.012 8.977-4.556 18.61-6.851 28.3-6.851 7.418 0 14.871 1.344 22.086 4.049 12 4.504 22.178 12.407 29.432 22.856 3.95 5.687 10.47 9.082 17.44 9.082h141.61c6.969 0 13.487-3.392 17.435-9.075 7.265-10.455 17.448-18.361 29.443-22.863 16.64-6.238 34.534-5.244 50.386 2.8 15.849 8.043 27.215 21.898 32.005 39.014l32.657 116.62c3.539 12.644 2.215 26.054-3.723 37.762z"/>
                		<circle cx="396.96" cy="187.21" r="13.31"/>
                		<circle cx="396.96" cy="250.06" r="13.311"/>
                		<circle cx="365.54" cy="218.64" r="13.311"/>
                		<circle cx="428.39" cy="218.64" r="13.311"/>
                		<path d="m147.18 208.1h-18.653v-18.653c0-5.818-4.716-10.535-10.535-10.535-5.818 0-10.535 4.716-10.535 10.535v18.653h-18.653c-5.818 0-10.535 4.716-10.535 10.535 0 5.818 4.716 10.535 10.535 10.535h18.653v18.653c0 5.818 4.716 10.535 10.535 10.535 5.818 0 10.535-4.716 10.535-10.535v-18.653h18.653c5.818 0 10.535-4.716 10.535-10.535-1e-3 -5.819-4.717-10.535-10.535-10.535z"/>
                		<path d="m232.03 208.1h-11.524c-5.818 0-10.535 4.716-10.535 10.535 0 5.818 4.716 10.535 10.535 10.535h11.524c5.818 0 10.535-4.716 10.535-10.535-1e-3 -5.819-4.717-10.535-10.535-10.535z"/>
                		<path d="m291.99 208.1h-11.524c-5.818 0-10.535 4.716-10.535 10.535 0 5.818 4.716 10.535 10.535 10.535h11.524c5.818 0 10.535-4.716 10.535-10.535s-4.717-10.535-10.535-10.535z"/>
                		<path d="m197.52 264.54c-11.696 0-21.211 9.515-21.211 21.211 0 11.697 9.515 21.212 21.211 21.212 11.697 0 21.212-9.515 21.212-21.212-1e-3 -11.696-9.516-21.211-21.212-21.211zm0 26.621c-2.982 0-5.409-2.426-5.409-5.41 0-2.982 2.426-5.409 5.409-5.409s5.41 2.426 5.41 5.409c-1e-3 2.983-2.427 5.41-5.41 5.41z"/>
                		<path d="m314.93 264.54c-11.696 0-21.211 9.515-21.211 21.211 0 11.697 9.515 21.212 21.211 21.212s21.211-9.515 21.211-21.212c0-11.696-9.515-21.211-21.211-21.211zm0 26.621c-2.982 0-5.409-2.426-5.409-5.41 0-2.982 2.426-5.409 5.409-5.409s5.409 2.426 5.409 5.409-2.426 5.41-5.409 5.41z"/>
                </svg>
