<?xml version="1.0" encoding="UTF-8"?>
<!DOCTYPE svg  PUBLIC '-//W3C//DTD SVG 1.1//EN'  'http://www.w3.org/Graphics/SVG/1.1/DTD/svg11.dtd'>
<svg width="55px" height="55px" enable-background="new 0 0 199.29 199.29" stroke="black" stroke-width="4px" version="1.1" viewBox="0 0 199.29 199.29" xml:space="preserve" xmlns="http://www.w3.org/2000/svg">
<path d="m15.569 199.29c-1.884 0-3.768-0.717-5.201-2.151l-8.217-8.217c-2.868-2.868-2.868-7.534 0-10.402l13.189-13.189c0.773-0.771 2.02-0.779 2.801-0.027l71.883-71.884-33.584-33.584c-0.375-0.375-0.586-0.884-0.586-1.414v-14.143c0-0.53 0.211-1.039 0.586-1.414l42.28-42.279c0.375-0.375 0.883-0.586 1.414-0.586h14.143c0.53 0 1.039 0.211 1.414 0.586l81.628 81.628 6e-3 6e-3s4e-3 4e-3 6e-3 6e-3l1.374 1.374c0.375 0.375 0.586 0.884 0.586 1.414v14.143c0 0.53-0.211 1.039-0.586 1.414l-42.279 42.279c-0.375 0.375-0.884 0.586-1.414 0.586h-14.142c-0.53 0-1.039-0.211-1.414-0.586l-33.585-33.584-12.331 12.33c-0.01 0.01-0.019 0.02-0.028 0.029l-13.733 13.732c-9e-3 0.01-0.018 0.019-0.027 0.027l-41.256 41.256c-9e-3 9e-3 -0.018 0.019-0.027 0.027l-4.479 4.48c0.754 0.783 0.745 2.029-0.027 2.801l-13.188 13.189c-1.437 1.436-3.321 2.153-5.206 2.153zm1.186-29.718l-11.776 11.776c-1.309 1.309-1.309 3.438 0 4.746l8.217 8.217c1.307 1.308 3.437 1.309 4.747 0l11.774-11.775-12.962-12.964zm12.237 6.579l2.167 2.168 1.645-1.645-3.812-0.523zm-4.68-4.679l12.041 1.653 10.211-10.211-17.918-2.458-7.676 7.675 3.342 3.341zm7.884-14.567l17.919 2.458 10.21-10.21-17.918-2.458-10.211 10.21zm13.761-13.76l17.919 2.458 10.21-10.211-17.917-2.458-10.212 10.211zm96.978-3.709h11.247l41.107-41.107v-11.247l-52.354 52.354zm-35.624-34.386l32.177 32.177 53.594-53.593-77.847-77.847-53.594 53.593 32.598 32.598 0.028 0.028 13.001 13.001c0.015 0.014 0.029 0.028 0.043 0.043zm-47.592 24.333l17.918 2.459 10.21-10.211-17.917-2.458-10.211 10.21zm13.76-13.761l17.918 2.459 10.21-10.211-17.917-2.458-10.211 10.21zm13.761-13.761l13.012 1.785-7.398-7.397-5.614 5.612zm-27.386-56.754v10.403l51.511-51.51h-10.403l-41.108 41.107z"/>
</svg>
