<?xml version="1.0" encoding="UTF-8"?>
<svg enable-background="new 0 0 512.001 512.001" version="1.1" viewBox="0 0 512.001 512.001" xml:space="preserve" xmlns="http://www.w3.org/2000/svg">
		<path d="m190.21 202.49c-2.937-4.678-9.107-6.09-13.786-3.153l-43.226 27.132c-4.678 2.936-6.09 9.108-3.153 13.786 1.899 3.026 5.152 4.685 8.479 4.685 1.816 0 3.654-0.495 5.307-1.532l43.226-27.132c4.678-2.936 6.09-9.108 3.153-13.786z"/>
		<path d="m122.66 244.91c-2.932-4.679-9.099-6.098-13.783-3.168l-0.201 0.126c-4.681 2.932-6.099 9.102-3.168 13.783 1.898 3.031 5.154 4.694 8.485 4.694 1.813 0 3.648-0.493 5.298-1.526l0.201-0.126c4.681-2.932 6.099-9.102 3.168-13.783z"/>
		<path d="m510.3 4.42c-2.809-4.177-8.286-5.615-12.784-3.355l-296.02 148.65c-3.343 1.678-5.469 5.081-5.512 8.821-0.044 3.74 2.003 7.191 5.306 8.946l58.313 30.993-133.03 83.508c-3.024 1.898-4.806 5.263-4.677 8.83 0.128 3.567 2.148 6.795 5.3 8.47l64.794 34.438-188.46 160.67c-3.91 3.333-4.658 9.086-1.731 13.308 1.93 2.782 5.041 4.303 8.225 4.303 1.648 0 3.314-0.407 4.846-1.257l303.98-168.68c3.205-1.779 5.18-5.169 5.147-8.835-0.033-3.665-2.069-7.02-5.307-8.74l-59.226-31.48 138.16-88.938c2.995-1.928 4.738-5.305 4.576-8.864s-2.205-6.763-5.363-8.411l-51.146-26.685 162.91-142.59c3.788-3.315 4.522-8.929 1.711-13.106zm-188.79 150.27c-2.484 2.174-3.735 5.435-3.344 8.712 0.393 3.278 2.377 6.151 5.304 7.678l48.851 25.487-138.04 88.856c-2.983 1.921-4.727 5.28-4.578 8.826 0.147 3.546 2.164 6.748 5.298 8.413l58.031 30.845-200.45 111.23 123.56-105.34c2.52-2.148 3.813-5.404 3.454-8.695-0.359-3.292-2.324-6.191-5.248-7.745l-62.517-33.228 133.04-83.51c3.023-1.898 4.806-5.263 4.677-8.83-0.128-3.567-2.148-6.795-5.3-8.47l-56.485-30.021 208.63-104.76-114.89 100.56z"/>
		<path d="m379.28 347.4c-2.685-4.828-8.777-6.562-13.6-3.878l-0.208 0.116c-4.826 2.685-6.563 8.774-3.877 13.601 1.828 3.287 5.235 5.14 8.747 5.14 1.646 0 3.314-0.407 4.853-1.263l0.208-0.116c4.826-2.685 6.563-8.774 3.877-13.6z"/>
		<path d="m353.96 361.46c-2.681-4.829-8.769-6.572-13.597-3.891l-44.624 24.764c-4.829 2.68-6.571 8.767-3.892 13.596 1.827 3.292 5.237 5.149 8.753 5.149 1.642 0 3.307-0.405 4.844-1.258l44.624-24.764c4.829-2.68 6.571-8.767 3.892-13.596z"/>
</svg>
