<?xml version="1.0" encoding="UTF-8"?>
<svg enable-background="new 0 0 48.25 48.25" version="1.1" viewBox="0 0 48.25 48.25" xml:space="preserve" xmlns="http://www.w3.org/2000/svg">
<path d="m45.817 29.509c-0.146-0.534-0.699-0.847-1.228-0.702l-6.945 1.893-4.984-2.848 7.792-2.82c0.396-0.144 0.66-0.521 0.659-0.942s-0.267-0.798-0.663-0.94l-7.781-2.78 4.962-2.852 6.949 1.877c0.087 0.023 0.175 0.035 0.262 0.035 0.44 0 0.844-0.294 0.965-0.74 0.144-0.533-0.172-1.082-0.705-1.226l-5.018-1.355 4.591-2.639c0.479-0.275 0.645-0.887 0.369-1.365-0.276-0.479-0.885-0.644-1.365-0.369l-4.591 2.638 1.355-5.017c0.144-0.533-0.172-1.082-0.705-1.226-0.528-0.143-1.082 0.17-1.227 0.705l-1.877 6.949-5.025 2.888 1.466-8.232c0.074-0.415-0.12-0.832-0.486-1.042-0.365-0.209-0.822-0.168-1.146 0.105l-6.316 5.364v-5.744l5.089-5.089c0.391-0.391 0.391-1.023 0-1.414s-1.023-0.391-1.414 0l-3.675 3.675v-5.296c0-0.552-0.448-1-1-1s-1 0.448-1 1v5.296l-3.675-3.675c-0.391-0.391-1.023-0.391-1.414 0s-0.391 1.023 0 1.414l5.089 5.089v5.78l-6.378-5.371c-0.323-0.271-0.781-0.312-1.146-0.1-0.365 0.211-0.558 0.629-0.482 1.044l1.497 8.205-5.018-2.868-1.894-6.944c-0.146-0.533-0.697-0.849-1.228-0.702-0.533 0.145-0.847 0.695-0.702 1.228l1.367 5.014-4.598-2.628c-0.479-0.273-1.09-0.107-1.364 0.372s-0.107 1.09 0.372 1.364l4.597 2.627-5.014 1.367c-0.533 0.146-0.847 0.695-0.702 1.228 0.122 0.445 0.524 0.737 0.964 0.737 0.087 0 0.175-0.012 0.264-0.036l6.944-1.893 4.984 2.848-7.789 2.82c-0.396 0.144-0.661 0.521-0.66 0.942s0.266 0.798 0.664 0.94l7.781 2.78-4.962 2.852-6.949-1.877c-0.536-0.145-1.083 0.171-1.226 0.705-0.144 0.533 0.171 1.082 0.705 1.227l5.018 1.355-4.593 2.64c-0.479 0.275-0.644 0.887-0.369 1.365 0.185 0.322 0.522 0.502 0.868 0.502 0.169 0 0.34-0.043 0.497-0.133l4.592-2.639-1.355 5.018c-0.144 0.533 0.171 1.082 0.705 1.227 0.087 0.023 0.175 0.034 0.261 0.034 0.441 0 0.845-0.293 0.965-0.739l1.877-6.948 5.026-2.888-1.466 8.232c-0.074 0.416 0.121 0.833 0.486 1.043 0.155 0.089 0.327 0.133 0.498 0.133 0.232 0 0.462-0.081 0.647-0.237l6.316-5.365v5.742l-5.089 5.09c-0.391 0.391-0.391 1.023 0 1.414 0.195 0.195 0.451 0.293 0.707 0.293s0.512-0.098 0.707-0.293l3.675-3.676v5.296c0 0.553 0.448 1 1 1s1-0.447 1-1v-5.296l3.675 3.675c0.195 0.195 0.451 0.293 0.707 0.293s0.512-0.098 0.707-0.293c0.391-0.391 0.391-1.023 0-1.414l-5.089-5.09v-5.78l6.378 5.37c0.324 0.271 0.781 0.31 1.146 0.101 0.364-0.212 0.558-0.63 0.481-1.045l-1.496-8.204 5.019 2.868 1.893 6.943c0.121 0.445 0.524 0.737 0.964 0.737 0.088 0 0.176-0.011 0.264-0.035 0.533-0.146 0.848-0.695 0.702-1.228l-1.367-5.014 4.597 2.627c0.156 0.09 0.327 0.132 0.495 0.132 0.347 0 0.685-0.181 0.869-0.504 0.274-0.479 0.107-1.09-0.372-1.364l-4.598-2.626 5.015-1.367c0.533-0.146 0.848-0.696 0.702-1.228zm-8.661-5.411l-6.774 2.452-4.246-2.427 4.252-2.443 6.768 2.418zm-6.539-11.272l-1.272 7.146-4.22 2.425v-4.907l5.492-4.664zm-13.031 0.028l5.539 4.665v4.884l-4.239-2.423-1.3-7.126zm-6.492 11.298l6.773-2.452 4.247 2.427-4.252 2.443-6.768-2.418zm6.539 11.272l1.273-7.146 4.219-2.425v4.906l-5.492 4.665zm13.032-0.028l-5.54-4.664v-4.884l4.24 2.423 1.3 7.125z"/>
</svg>
